<svg id="Layer_1" data-name="Layer 1" xmlns="http://www.w3.org/2000/svg" viewBox="0 0 348.97 133.98"><path d="M23.54,44.31H8v4.83H18V72.51c0,5.22-3.09,7-6.18,7s-6.29-1.85-6.29-7.25V70.6H0v2c0,8.54,6,12.07,11.74,12.07s11.8-3.48,11.8-12.07Z" style="fill:#261e34"/><path d="M49.19,84h5.05V66c0-7.19-4-11.12-11.23-11.12a17.83,17.83,0,0,0-10.62,3.37l2.25,4a14.36,14.36,0,0,1,7.92-2.76c3.59,0,6.23,1.58,6.23,6.24v.51H47.56c-4.78,0-17.14.39-17.14,9.77,0,5.68,4.78,8.65,9.66,8.65A9.85,9.85,0,0,0,49.19,79h.11a21.6,21.6,0,0,0-.11,2.24Zm-.34-12.75c0,4.21-3,9-7.59,9-3.53,0-5.33-2.25-5.33-4.55,0-5.11,7.41-5.39,11.51-5.39h1.41Z" style="fill:#261e34"/><path d="M105.76,84V65.77c0-7.25-3-10.9-9.38-10.9a11.43,11.43,0,0,0-10.11,6.46h-.12c-1-4.27-3.76-6.46-8.53-6.46a11.12,11.12,0,0,0-9.78,6.51h-.11a20.17,20.17,0,0,0,.11-2.07V55.54H62.56V84H68V71a15.82,15.82,0,0,1,.33-3.71c1.07-4,4-7.47,8.15-7.47,4.38,0,5,3.43,5,7.14V84h5.45V71a17,17,0,0,1,.39-3.93c1-3.88,4-7.25,8-7.25,4.27,0,5,3.15,5,7.14V84Z" style="fill:#261e34"/><path d="M137.69,73.46c0-12.86-19.21-10.67-19.21-18.87,0-3.15,3-5.79,7.19-5.79a14,14,0,0,1,8.71,3.43l2.53-4.61s-3.88-4-11.24-4-12.81,4.89-12.81,11.07c0,12.19,19.22,10.34,19.22,18.93,0,3.77-3.15,5.85-6.86,5.85-5.9,0-10.11-4.27-10.11-4.27L112,79.42a18.57,18.57,0,0,0,13.15,5.22C133,84.64,137.69,79.59,137.69,73.46Z" style="fill:#261e34"/><path d="M166.65,76.61a13.55,13.55,0,0,1-8.43,3.32c-5.06,0-9.5-3.15-9.78-9.39h20.73s.17-1.63.17-2.36c0-7.36-4.27-13.31-12.3-13.31s-14.22,5.84-14.22,14.89c0,8.42,6.13,14.88,15.06,14.88a16.92,16.92,0,0,0,11-4Zm-9.72-17.42c3.65,0,6.68,2.36,6.85,7.25H148.61C149.4,61.78,152.77,59.19,156.93,59.19Z" style="fill:#261e34"/><path d="M180.35,63.07c0-2.47,2.31-3.48,4.67-3.48a10.4,10.4,0,0,1,7,2.53L194.23,58s-2.92-3.14-9.16-3.14c-5.67,0-10.28,2.92-10.28,8.09,0,9.27,14.61,8.2,14.61,13.43,0,2.3-2.36,3.54-4.72,3.54a12.22,12.22,0,0,1-8.15-3.32l-2.64,3.88a15.3,15.3,0,0,0,10.79,4.15c6.24,0,10.28-3.53,10.28-8.25C195,67.06,180.35,68.18,180.35,63.07Z" style="fill:#261e34"/><path d="M217.47,54.87A11.47,11.47,0,0,0,207,61.22h-.11s.11-1,.11-2.36V44.31h-5.45V84H207V70.66a13.22,13.22,0,0,1,.45-3.77,9.41,9.41,0,0,1,9-7c4.55,0,5.39,3.14,5.39,7.13V84h5.45V65.77C227.24,58.52,224.15,54.87,217.47,54.87Z" style="fill:#261e34"/><path d="M6.67,98.92a5.74,5.74,0,0,0-2.21,2.19,6.36,6.36,0,0,0-.8,3.2V121.9H6.92V112H17.05v-2.89H6.92v-4.82a3.26,3.26,0,0,1,.9-2.36,3.16,3.16,0,0,1,2.4-.94H18.3V98.12H9.84A6.35,6.35,0,0,0,6.67,98.92Z" style="fill:#261e34"/><rect x="22.06" y="104.58" width="3.16" height="17.33" style="fill:#261e34"/><path d="M23.65,97.61a2.15,2.15,0,1,0,1.48.63A2,2,0,0,0,23.65,97.61Z" style="fill:#261e34"/><path d="M42.51,105.14a9.53,9.53,0,0,0-8.38,0,7.12,7.12,0,0,0-2.87,2.7,7.73,7.73,0,0,0-1,4v10h3.12v-10a5,5,0,0,1,.7-2.7,4.66,4.66,0,0,1,1.83-1.75,5.07,5.07,0,0,1,4.86,0,4.75,4.75,0,0,1,1.84,1.75,5.09,5.09,0,0,1,.69,2.7v10H46.4v-10a7.74,7.74,0,0,0-1-4A7.13,7.13,0,0,0,42.51,105.14Z" style="fill:#261e34"/><path d="M65.23,107.67h-.07a5.81,5.81,0,0,0-1.49-1.83A7.35,7.35,0,0,0,59,104.17a8.51,8.51,0,0,0-4.3,1.09,7.76,7.76,0,0,0-3,3.07A9.54,9.54,0,0,0,50.55,113a10.44,10.44,0,0,0,.67,3.85,8.37,8.37,0,0,0,1.85,2.94,7.69,7.69,0,0,0,2.82,1.85,9.86,9.86,0,0,0,3.6.63A9.2,9.2,0,0,0,64,121.22a8,8,0,0,0,3.16-3.14,9.84,9.84,0,0,0,1.17-4.94v-16H65.23Zm-.8,9a5.62,5.62,0,0,1-2.05,2.21,5.78,5.78,0,0,1-5.8,0,5.71,5.71,0,0,1-2.09-2.21,7.69,7.69,0,0,1,0-6.73,5.81,5.81,0,0,1,2.07-2.24,5.41,5.41,0,0,1,2.9-.82,5.46,5.46,0,0,1,5,3,7.19,7.19,0,0,1,.76,3.42A7,7,0,0,1,64.43,116.64Z" style="fill:#261e34"/><path d="M96.18,114.57a5.12,5.12,0,0,1-.7,2.7A4.8,4.8,0,0,1,93.65,119a5.22,5.22,0,0,1-2.47.61,5.15,5.15,0,0,1-2.43-.61,4.68,4.68,0,0,1-1.81-1.75,5.11,5.11,0,0,1-.68-2.7v-10H83.1v10a7.78,7.78,0,0,0,.85,3.69,7.12,7.12,0,0,0,2.32,2.61,8.1,8.1,0,0,0,3.38,1.28v6.62h3.13v-6.62a8.36,8.36,0,0,0,3.38-1.31,7.05,7.05,0,0,0,2.31-2.6,7.88,7.88,0,0,0,.83-3.67v-10H96.18Z" style="fill:#261e34"/><path d="M117.2,105.38a9.08,9.08,0,0,0-4.71-1.21,9.07,9.07,0,1,0,0,18.14,9.17,9.17,0,0,0,4.71-1.2,8.89,8.89,0,0,0,3.23-3.27,9.67,9.67,0,0,0,0-9.22A8.81,8.81,0,0,0,117.2,105.38Zm.49,11.11a6,6,0,0,1-2.07,2.29,6.15,6.15,0,0,1-6.24,0,5.82,5.82,0,0,1-2.08-2.29,7,7,0,0,1-.75-3.25,6.91,6.91,0,0,1,.75-3.24,6,6,0,0,1,8.32-2.3,5.91,5.91,0,0,1,2.07,2.3,6.91,6.91,0,0,1,.75,3.24A7,7,0,0,1,117.69,116.49Z" style="fill:#261e34"/><path d="M138.76,114.57a5.11,5.11,0,0,1-.69,2.7,4.82,4.82,0,0,1-1.84,1.75,5.21,5.21,0,0,1-2.46.61,5.15,5.15,0,0,1-2.43-.61,4.7,4.7,0,0,1-1.82-1.75,5.2,5.2,0,0,1-.68-2.7v-10h-3.16v10a7.71,7.71,0,0,0,1,4,7,7,0,0,0,2.89,2.7,8.84,8.84,0,0,0,4.19,1,8.74,8.74,0,0,0,4.18-1,7.17,7.17,0,0,0,2.89-2.7,7.62,7.62,0,0,0,1-4v-10h-3.16Z" style="fill:#261e34"/><path d="M148.19,105.89a4.88,4.88,0,0,0-1.31,3.61v12.4H150V109.71a2.47,2.47,0,0,1,.63-1.8,2.33,2.33,0,0,1,1.75-.65h3v-2.68h-3.57A4.86,4.86,0,0,0,148.19,105.89Z" style="fill:#261e34"/><path d="M169.71,97.58a2.15,2.15,0,0,0-2.11,2.11,2,2,0,0,0,.63,1.47,2.05,2.05,0,0,0,3,0,2,2,0,0,0,.63-1.47,2.15,2.15,0,0,0-2.11-2.11Z" style="fill:#261e34"/><path d="M168.18,122.38a2.5,2.5,0,0,1-.61,1.78,2.31,2.31,0,0,1-1.77.67h-2.75v2.68h3.3a4.59,4.59,0,0,0,5-4.93v-18h-3.13Z" style="fill:#261e34"/><path d="M189.35,105.36a9,9,0,0,0-4.73-1.19,9.38,9.38,0,0,0-4.89,1.21,8.09,8.09,0,0,0-3.12,3.26,9.61,9.61,0,0,0-1.09,4.6,10.5,10.5,0,0,0,1,4.59,7.84,7.84,0,0,0,2.82,3.28,7.74,7.74,0,0,0,4.34,1.2,7.28,7.28,0,0,0,3-.58,6.61,6.61,0,0,0,2.15-1.47,8,8,0,0,0,1.38-1.89h.07v3.53h3.16v-8.76a9.67,9.67,0,0,0-1.07-4.55A8.15,8.15,0,0,0,189.35,105.36Zm.18,11.13a5.63,5.63,0,0,1-2,2.31,5.56,5.56,0,0,1-3,.83,5.63,5.63,0,0,1-3.13-.85,5.56,5.56,0,0,1-2-2.29,8,8,0,0,1,0-6.49,5.52,5.52,0,0,1,2-2.3,5.72,5.72,0,0,1,3.15-.85,5.42,5.42,0,0,1,3,.84,5.53,5.53,0,0,1,2,2.26,7.28,7.28,0,0,1,.69,3.22A7.36,7.36,0,0,1,189.53,116.49Z" style="fill:#261e34"/><path d="M222.92,105.16a8.18,8.18,0,0,0-4.14-1,9.33,9.33,0,0,0-2.41.32,6.52,6.52,0,0,0-2.21,1.09,6,6,0,0,0-1.7,2.06h0a5.44,5.44,0,0,0-1.63-2.06,6.61,6.61,0,0,0-2.21-1.09,9.33,9.33,0,0,0-2.38-.32,8.31,8.31,0,0,0-4.18,1,6.75,6.75,0,0,0-2.65,2.65,7.48,7.48,0,0,0-.92,3.66V121.9h3.13V111.47a4.56,4.56,0,0,1,2.26-4,4.49,4.49,0,0,1,2.33-.62,4.61,4.61,0,0,1,2.39.63,4.86,4.86,0,0,1,1.7,1.67,4.37,4.37,0,0,1,.63,2.32V121.9H214V111.47a4.37,4.37,0,0,1,.63-2.32,4.75,4.75,0,0,1,1.72-1.67,4.63,4.63,0,0,1,2.38-.63,4.54,4.54,0,0,1,2.36.62,4.43,4.43,0,0,1,1.64,1.66,4.55,4.55,0,0,1,.62,2.34V121.9h3.12V111.47a7.37,7.37,0,0,0-.92-3.66A6.69,6.69,0,0,0,222.92,105.16Z" style="fill:#261e34"/><path d="M233.05,117.76a2.24,2.24,0,0,0,0,4.48,2.25,2.25,0,0,0,1.16-.3,2.22,2.22,0,0,0,.79-.82,2.25,2.25,0,0,0-1.95-3.36Z" style="fill:#261e34"/><path d="M340.05,53.62c2.35-14.69-2.85-27.21-14.8-34.57C317,14,312,4.66,311.93,4.61a8.58,8.58,0,0,0-16.19,4V31.2a51.39,51.39,0,1,0,44.31,22.42Zm2.43,28.95a44.66,44.66,0,0,1-5.36,21.27L334,101.63a41,41,0,0,0,1.49-35,8.59,8.59,0,0,0,2-3.09c.12-.33.22-.65.34-1A44.67,44.67,0,0,1,342.48,82.57Zm-56.89-30,1.6,3.47a28.49,28.49,0,0,0-11.66,44.67l-2.53,2.9a32.3,32.3,0,0,1,12.59-51Zm-1.26,55.3a28.51,28.51,0,0,0,41.75-25.26,28.66,28.66,0,0,0-.17-3.09l3.68-1.29a31.58,31.58,0,0,1,.31,4.38,32.32,32.32,0,0,1-47.24,28.69ZM303.53,5.35A3.33,3.33,0,0,1,307.28,7c.05.1,5.67,10.6,15.22,16.48,12.46,7.66,16.1,21.59,10,38.2A3.34,3.34,0,0,1,326,60.55c0-.46-.21-10.44-10.65-18.53V81.68c0,.29,0,.59,0,.89A17.87,17.87,0,1,1,301,65V8.59A3.33,3.33,0,0,1,303.53,5.35Zm-6,122.14a44.92,44.92,0,0,1-1.82-89.81V41.5a41.11,41.11,0,1,0,31,70l2.7,2.7A44.77,44.77,0,0,1,297.56,127.49Z" style="fill:#261e34"/><path d="M326.76,111.46a41.1,41.1,0,1,1-31-70V37.68a44.92,44.92,0,1,0,33.72,76.48Z" style="fill:#fff"/><path d="M335.45,66.62a41,41,0,0,1-1.49,35l3.16,2.21a44.87,44.87,0,0,0,.65-41.28c-.12.32-.22.64-.34,1A8.59,8.59,0,0,1,335.45,66.62Z" style="fill:#fff"/><path d="M329.9,82.57a31.58,31.58,0,0,0-.31-4.38l-3.68,1.29a28.5,28.5,0,0,1-28.35,31.61,28.37,28.37,0,0,1-13.23-3.26l-1.67,3.43A32.32,32.32,0,0,0,329.9,82.57Z" style="fill:#fff"/><path d="M265.22,82.57a32.14,32.14,0,0,0,7.78,21l2.53-2.9A28.49,28.49,0,0,1,287.19,56l-1.6-3.47A32.39,32.39,0,0,0,265.22,82.57Z" style="fill:#fff"/><path d="M301,65a17.86,17.86,0,1,0,14.45,17.54c0-.3,0-.6,0-.89V42C325.82,50.11,326,60.09,326,60.55a3.34,3.34,0,0,0,6.47,1.17c6.1-16.61,2.46-30.54-10-38.2C313,17.64,307.33,7.14,307.28,7A3.34,3.34,0,0,0,301,8.59Zm5.77-52.52c.13.19.27.39.42.59.28.41.59.84.92,1.28.82,1.1,1.77,2.3,2.85,3.52.43.49.88,1,1.35,1.48a42.56,42.56,0,0,0,8.46,7c.66.41,1.29.83,1.89,1.28a21.73,21.73,0,0,1,1.74,1.4,23.25,23.25,0,0,1,3.61,4,21.92,21.92,0,0,1,2.1,3.76q.44,1,.78,2A26.21,26.21,0,0,1,332,48.15c0,.42,0,.85-.08,1.28a36.74,36.74,0,0,1-.56,4c-.27,1.37-.62,2.77-1,4.21-.29,1-.62,1.94-1,2.94a22,22,0,0,0-1.14-6.12c-.08-.28-.18-.56-.28-.85-.31-.87-.69-1.8-1.14-2.76a31.83,31.83,0,0,0-1.63-3c-.42-.68-.89-1.36-1.4-2s-1.07-1.38-1.68-2.07-1.27-1.38-2-2.06A38.13,38.13,0,0,0,312,35.88v45.8c0,.29,0,.58,0,.89a14.56,14.56,0,1,1-7.77-12.86V8.59A45.29,45.29,0,0,0,306.75,12.51Z" style="fill:#fff"/><path d="M304.32,69.71a14.53,14.53,0,1,0,7.77,12.86c0-.31,0-.6,0-.89V35.88a38.13,38.13,0,0,1,8.07,5.81c.72.68,1.38,1.37,2,2.06s1.17,1.38,1.68,2.07,1,1.37,1.4,2a31.83,31.83,0,0,1,1.63,3c.45,1,.83,1.89,1.14,2.76.1.29.2.57.28.85a22,22,0,0,1,1.14,6.12c.36-1,.69-2,1-2.94.43-1.44.78-2.84,1-4.21a36.74,36.74,0,0,0,.56-4c0-.43.06-.86.08-1.28a26.21,26.21,0,0,0-1.17-9.29q-.35-1.05-.78-2a21.92,21.92,0,0,0-2.1-3.76,23.25,23.25,0,0,0-3.61-4,21.73,21.73,0,0,0-1.74-1.4c-.6-.45-1.23-.87-1.89-1.28a42.56,42.56,0,0,1-8.46-7c-.47-.5-.92-1-1.35-1.48-1.08-1.22-2-2.42-2.85-3.52-.33-.44-.64-.87-.92-1.28-.15-.2-.29-.4-.42-.59a45.29,45.29,0,0,1-2.43-3.92Z" style="fill:#8457ff"/></svg>