<svg id="Layer_1" data-name="Layer 1" xmlns="http://www.w3.org/2000/svg" viewBox="0 0 102.83 133.98"><path d="M93.91,53.62c2.35-14.69-2.85-27.21-14.8-34.57C70.89,14,65.82,4.66,65.79,4.61a8.58,8.58,0,0,0-16.19,4V31.2A51.39,51.39,0,1,0,93.91,53.62Zm2.43,28.95A44.66,44.66,0,0,1,91,103.84l-3.16-2.21a41,41,0,0,0,1.49-35,8.59,8.59,0,0,0,2-3.09l.33-1A44.54,44.54,0,0,1,96.34,82.57Zm-56.89-30L41.05,56a28.49,28.49,0,0,0-11.66,44.67l-2.53,2.9a32.3,32.3,0,0,1,12.59-51Zm-1.26,55.3A28.51,28.51,0,0,0,79.94,82.57a28.66,28.66,0,0,0-.17-3.09l3.68-1.29a31.58,31.58,0,0,1,.31,4.38,32.32,32.32,0,0,1-47.24,28.69ZM57.38,5.35A3.34,3.34,0,0,1,61.14,7c0,.1,5.66,10.6,15.22,16.48,12.45,7.66,16.1,21.59,10,38.2a3.34,3.34,0,0,1-6.47-1.17c0-.46-.21-10.44-10.65-18.53V81.68c0,.29,0,.59,0,.89A17.87,17.87,0,1,1,54.84,65V8.59A3.33,3.33,0,0,1,57.38,5.35Zm-6,122.14A44.92,44.92,0,0,1,49.6,37.68V41.5a41.11,41.11,0,1,0,31,70l2.7,2.7A44.77,44.77,0,0,1,51.42,127.49Z" style="fill:#261e34"/><path d="M80.62,111.46a41.1,41.1,0,1,1-31-70V37.68a44.92,44.92,0,1,0,33.72,76.48Z" style="fill:#fff"/><path d="M89.31,66.62a41,41,0,0,1-1.49,35L91,103.84a44.83,44.83,0,0,0,.64-41.28l-.33,1A8.59,8.59,0,0,1,89.31,66.62Z" style="fill:#fff"/><path d="M83.76,82.57a31.58,31.58,0,0,0-.31-4.38l-3.68,1.29a28.5,28.5,0,0,1-28.35,31.61,28.34,28.34,0,0,1-13.23-3.26l-1.67,3.43A32.32,32.32,0,0,0,83.76,82.57Z" style="fill:#fff"/><path d="M19.08,82.57a32.14,32.14,0,0,0,7.78,21l2.53-2.9A28.49,28.49,0,0,1,41.05,56l-1.6-3.47A32.38,32.38,0,0,0,19.08,82.57Z" style="fill:#fff"/><path d="M54.84,65A17.86,17.86,0,1,0,69.29,82.57c0-.3,0-.6,0-.89V42c10.44,8.09,10.65,18.07,10.65,18.53a3.34,3.34,0,0,0,6.47,1.17c6.1-16.61,2.45-30.54-10-38.2C66.8,17.64,61.19,7.14,61.14,7a3.34,3.34,0,0,0-6.3,1.55Zm5.77-52.52.41.59c.29.41.6.84.93,1.28.82,1.1,1.77,2.3,2.85,3.52.43.49.88,1,1.34,1.48a42.91,42.91,0,0,0,8.47,7c.66.41,1.29.83,1.89,1.28A21.56,21.56,0,0,1,78.23,29a22.46,22.46,0,0,1,3.61,4A22,22,0,0,1,84,36.82q.43,1,.78,2a26.21,26.21,0,0,1,1.17,9.29c0,.42,0,.85-.08,1.28a36.74,36.74,0,0,1-.56,4c-.27,1.37-.62,2.77-1.05,4.21-.29,1-.62,1.94-1,2.94a22,22,0,0,0-1.14-6.12c-.09-.28-.18-.56-.28-.85-.31-.87-.69-1.8-1.14-2.76a31.83,31.83,0,0,0-1.63-3c-.43-.68-.89-1.36-1.4-2S76.57,44.44,76,43.75s-1.28-1.38-2-2.06a38.13,38.13,0,0,0-8.07-5.81v45.8c0,.29,0,.58,0,.89a14.56,14.56,0,1,1-7.77-12.86V8.59A42.34,42.34,0,0,0,60.61,12.51Z" style="fill:#fff"/><path d="M58.18,69.71A14.53,14.53,0,1,0,66,82.57c0-.31,0-.6,0-.89V35.88A38.13,38.13,0,0,1,74,41.69c.71.68,1.38,1.37,2,2.06s1.16,1.38,1.68,2.07,1,1.37,1.4,2a31.83,31.83,0,0,1,1.63,3c.45,1,.83,1.89,1.14,2.76.1.29.19.57.28.85a22,22,0,0,1,1.14,6.12c.36-1,.69-2,1-2.94.43-1.44.78-2.84,1.05-4.21a36.74,36.74,0,0,0,.56-4c0-.43.06-.86.08-1.28a26.21,26.21,0,0,0-1.17-9.29q-.35-1.05-.78-2a22,22,0,0,0-2.11-3.76,22.46,22.46,0,0,0-3.61-4,21.56,21.56,0,0,0-1.73-1.4c-.6-.45-1.23-.87-1.89-1.28a42.91,42.91,0,0,1-8.47-7c-.46-.5-.91-1-1.34-1.48-1.08-1.22-2-2.42-2.85-3.52-.33-.44-.64-.87-.93-1.28l-.41-.59a42.34,42.34,0,0,1-2.43-3.92Z" style="fill:#8457ff"/></svg>